HIERARCHY
ROOT Hips
{
	OFFSET -0.001795 -0.223333 0.028219
	CHANNELS 6 Xposition Yposition Zposition Zrotation Yrotation Xrotation 
	JOINT LeftUpLeg
	{
		OFFSET 0.069520 -0.091406 -0.006815
		CHANNELS 3 Zrotation Yrotation Xrotation
		JOINT LeftLeg
		{
			OFFSET 0.034277 -0.375199 -0.004496
			CHANNELS 3 Zrotation Yrotation Xrotation
			JOINT LeftFoot
			{
				OFFSET -0.013596 -0.397961 -0.043693
				CHANNELS 3 Zrotation Yrotation Xrotation
				JOINT LeftToe
				{
					OFFSET 0.026358 -0.055791 0.119288
					CHANNELS 3 Zrotation Yrotation Xrotation
					End Site
					{
						OFFSET 0.000000 0.000000 0.000000
					}
				}
			}
		}
	}
	JOINT RightUpLeg
	{
		OFFSET -0.067670 -0.090522 -0.004320
		CHANNELS 3 Zrotation Yrotation Xrotation
		JOINT RightLeg
		{
			OFFSET -0.038290 -0.382569 -0.008850
			CHANNELS 3 Zrotation Yrotation Xrotation
			JOINT RightFoot
			{
				OFFSET 0.015774 -0.398415 -0.042312
				CHANNELS 3 Zrotation Yrotation Xrotation
				JOINT RightToe
				{
					OFFSET -0.025372 -0.048144 0.123348
					CHANNELS 3 Zrotation Yrotation Xrotation
					End Site
					{
						OFFSET 0.000000 0.000000 0.000000
					}
				}
			}
		}
	}
	JOINT Spine
	{
		OFFSET -0.002533 0.108963 -0.026696
		CHANNELS 3 Zrotation Yrotation Xrotation
		JOINT Spine1
		{
			OFFSET 0.005487 0.135180 0.001092
			CHANNELS 3 Zrotation Yrotation Xrotation
			JOINT Spine2
			{
				OFFSET 0.001457 0.052922 0.025425
				CHANNELS 3 Zrotation Yrotation Xrotation
				JOINT Neck
				{
					OFFSET -0.002778 0.213870 -0.042857
					CHANNELS 3 Zrotation Yrotation Xrotation
					JOINT Head
					{
						OFFSET 0.005152 0.064970 0.051349
						CHANNELS 3 Zrotation Yrotation Xrotation
						End Site
						{
							OFFSET 0.000000 0.000000 0.000000
						}
					}
				}
				JOINT LeftShoulder
				{
					OFFSET 0.078845 0.121749 -0.034090
					CHANNELS 3 Zrotation Yrotation Xrotation
					JOINT LeftArm
					{
						OFFSET 0.090977 0.030469 -0.008868
						CHANNELS 3 Zrotation Yrotation Xrotation
						JOINT LeftForeArm
						{
							OFFSET 0.259612 -0.012772 -0.027456
							CHANNELS 3 Zrotation Yrotation Xrotation
							JOINT LeftHand
							{
								OFFSET 0.249234 0.008986 -0.001171
								CHANNELS 3 Zrotation Yrotation Xrotation
								End Site
								{
									OFFSET 0.000000 0.000000 0.000000
								}
							}
						}
					}
				}
				JOINT RightShoulder
				{
					OFFSET -0.081759 0.118833 -0.038615
					CHANNELS 3 Zrotation Yrotation Xrotation
					JOINT RightArm
					{
						OFFSET -0.096012 0.032551 -0.009143
						CHANNELS 3 Zrotation Yrotation Xrotation
						JOINT RightForeArm
						{
							OFFSET -0.253742 -0.013329 -0.021401
							CHANNELS 3 Zrotation Yrotation Xrotation
							JOINT RightHand
							{
								OFFSET -0.255298 0.007772 -0.005559
								CHANNELS 3 Zrotation Yrotation Xrotation
								End Site
								{
									OFFSET 0.000000 0.000000 0.000000
								}
							}
						}
					}
				}
			}
		}
	}
}
MOTION
Frames: 10
Frame Time: 0.050000
0.000000 0.949892 0.000000 -1.991469 22.155211 4.422541 6.139000 -0.445849 1.318171 -1.656898 0.136520 -4.562773 10.334299 21.598114 16.631982 0.000000 0.000000 0.000000 -3.628811 0.515117 -11.350986 2.520480 -0.481659 6.313092 -9.543599 -18.477749 22.396309 0.000000 0.000000 0.000000 1.164211 -0.623691 9.018679 4.072055 0.090773 -25.660712 -2.595713 -11.114607 26.870597 -0.997596 2.535399 -26.942653 0.000000 0.000000 0.000000 -20.259961 -11.477378 4.271104 -47.519340 -27.472790 2.969478 -36.295443 -60.248835 25.026556 0.000000 0.000000 0.000000 11.650616 8.307181 3.991737 54.420205 12.579402 -2.069952 22.401865 51.433762 14.509470 0.000000 0.000000 0.000000 
0.003000 0.950086 0.001226 -2.410044 21.396266 4.703363 5.398960 -0.359463 1.822373 -0.061049 0.121776 -5.758254 10.736197 22.086731 17.166312 0.000000 0.000000 0.000000 -3.750060 0.515299 -11.209861 2.985634 -0.549556 5.591052 -8.518627 -17.050685 21.671437 0.000000 0.000000 0.000000 1.048541 -0.514030 7.847917 4.182594 0.046418 -26.407826 -2.753086 -12.193017 28.314010 -0.970587 2.368304 -28.514326 0.000000 0.000000 0.000000 -20.091230 -8.177118 2.885314 -49.376513 -23.701468 1.394034 -43.987845 -58.022278 29.239807 0.000000 0.000000 0.000000 10.192435 7.112980 3.154691 56.049704 10.192599 -3.268975 24.707461 48.840083 14.615611 0.000000 0.000000 0.000000 
0.005210 0.950212 0.003064 -2.421502 20.465386 4.433180 5.074466 -0.301522 2.220127 0.132116 0.119052 -5.344169 11.269154 22.690463 17.433880 0.000000 0.000000 0.000000 -4.098347 0.495038 -11.579518 3.081199 -0.612657 7.464124 -7.028917 -14.959147 19.825748 0.000000 0.000000 0.000000 1.085553 -0.527361 8.056955 4.289783 0.016793 -26.694802 -3.564773 -11.216867 28.594994 -0.634334 2.153908 -26.666268 0.000000 0.000000 0.000000 -20.928158 -5.741952 1.412764 -50.095531 -18.805352 -0.630865 -46.143070 -53.802620 28.021813 0.000000 0.000000 0.000000 11.894343 4.137480 1.887984 56.403445 6.365189 -5.126789 25.748518 46.737060 14.448871 0.000000 0.000000 0.000000 
0.006670 0.949646 0.005434 -2.529594 19.583159 4.681908 4.572479 -0.234315 2.600246 0.916900 0.116475 -5.945567 11.781930 23.275027 17.857974 0.000000 0.000000 0.000000 -4.168183 0.502184 -11.164077 3.284799 -0.608314 6.522670 -6.417670 -14.151171 18.843640 0.000000 0.000000 0.000000 0.606789 -0.432702 7.403617 4.668449 -0.083928 -27.037440 -3.670299 -12.075795 29.155848 -0.198924 1.626284 -25.974415 0.000000 0.000000 0.000000 -21.303584 -2.182155 -0.205269 -50.686376 -13.401562 -3.000060 -47.644344 -48.700124 26.257018 0.000000 0.000000 0.000000 10.705774 2.484418 0.880912 57.089840 3.868687 -6.370790 26.925448 44.951990 14.105318 0.000000 0.000000 0.000000 
0.006980 0.949628 0.007876 -2.873449 18.932442 4.473537 4.600663 -0.218642 3.019669 1.378678 0.109137 -5.992044 12.188813 23.727730 18.201586 0.000000 0.000000 0.000000 -3.619637 0.571541 -10.857742 2.868316 -0.499863 6.232409 -5.973534 -13.506025 18.828896 0.000000 0.000000 0.000000 0.486166 -0.425359 7.471915 5.003840 -0.161566 -27.252521 -4.131571 -12.481554 29.251020 0.670814 0.909917 -25.127316 0.000000 0.000000 0.000000 -21.060413 0.069061 -1.205949 -51.073182 -8.692850 -5.045354 -46.139059 -44.947486 23.536682 0.000000 0.000000 0.000000 10.708869 0.169302 -0.332079 57.408248 1.547009 -7.510243 27.209876 44.123097 13.802019 0.000000 0.000000 0.000000 
0.006827 0.949630 0.009508 -3.199187 17.682276 4.176726 4.683890 -0.187707 3.975232 1.564018 0.125285 -6.687511 12.887966 24.492745 18.941184 0.000000 0.000000 0.000000 -3.198338 0.627406 -10.537752 2.479115 -0.388316 5.626375 -5.107374 -12.247432 19.343381 0.000000 0.000000 0.000000 0.024332 -0.336293 6.776879 5.471776 -0.291823 -26.717246 -4.286633 -12.609411 29.964608 0.995401 0.506543 -24.545614 0.000000 0.000000 0.000000 -19.983562 1.348967 -1.554514 -51.162962 -4.977864 -6.699763 -44.833185 -43.935674 22.557755 0.000000 0.000000 0.000000 10.210894 -0.921038 -0.931669 58.423830 0.812085 -8.088282 26.224617 43.119502 12.920237 0.000000 0.000000 0.000000 
0.006386 0.949649 0.009685 -3.444784 16.597743 3.954876 4.938433 -0.188540 4.391850 1.321403 0.134847 -6.743284 13.538915 25.195493 19.434888 0.000000 0.000000 0.000000 -2.715452 0.711178 -10.898202 2.191288 -0.324604 6.374632 -4.720370 -11.782227 18.935093 0.000000 0.000000 0.000000 0.018780 -0.333535 6.772064 5.620986 -0.343583 -26.663045 -4.725473 -12.789230 30.052690 1.900246 -0.196932 -24.586312 0.000000 0.000000 0.000000 -19.590019 2.250512 -1.784639 -51.117488 -2.714481 -7.652174 -41.700490 -42.514436 20.462251 0.000000 0.000000 0.000000 10.120282 -1.649807 -1.394660 58.732754 0.749865 -8.197137 25.103396 41.984199 11.911269 0.000000 0.000000 0.000000 
0.006071 0.949694 0.008267 -3.855871 15.723366 3.546974 5.283342 -0.202718 4.719783 1.224141 0.135822 -6.597138 14.111407 25.807848 19.740664 0.000000 0.000000 0.000000 -2.148353 0.796859 -11.189450 1.890184 -0.253043 6.574927 -4.508048 -11.614500 20.200390 0.000000 0.000000 0.000000 0.002254 -0.340932 6.939272 6.291618 -0.518812 -26.416865 -5.554302 -13.011327 30.457227 2.466784 -0.686440 -24.579673 0.000000 0.000000 0.000000 -19.811751 1.906090 -1.373774 -51.076894 -3.487899 -7.405536 -35.874619 -41.074506 17.254105 0.000000 0.000000 0.000000 9.513417 -1.430960 -1.348436 60.254645 1.814598 -7.945296 21.862277 40.665481 10.145957 0.000000 0.000000 0.000000 
0.005614 0.949794 0.005728 -4.064569 15.174918 3.445338 5.480492 -0.214098 4.645371 1.087657 0.137561 -6.469780 14.469220 26.198795 19.921794 0.000000 0.000000 0.000000 -1.930223 0.850517 -11.621337 2.116987 -0.292288 6.749161 -4.797438 -12.207940 20.862656 0.000000 0.000000 0.000000 -0.013380 -0.351631 7.149030 6.628930 -0.626017 -25.973787 -6.029463 -13.544218 30.030737 2.626417 -0.931865 -24.497169 0.000000 0.000000 0.000000 -19.990544 0.415433 -0.320672 -50.969022 -6.584522 -6.131810 -28.361635 -37.975042 12.903611 0.000000 0.000000 0.000000 9.767311 -0.377952 -1.025502 60.663752 3.833751 -6.981558 18.794657 38.462601 8.271586 0.000000 0.000000 0.000000 
0.004810 0.949838 0.003102 -4.320974 14.054049 3.411107 5.727761 -0.217440 4.692235 0.837048 0.148457 -6.512058 15.166163 26.942835 20.426273 0.000000 0.000000 0.000000 -1.479295 0.945795 -12.158106 2.236011 -0.300770 7.008601 -5.003406 -12.750843 20.923437 0.000000 0.000000 0.000000 -0.007555 -0.356387 7.263044 7.022955 -0.731045 -26.004724 -6.635340 -14.228917 30.092484 3.109016 -1.467175 -24.593805 0.000000 0.000000 0.000000 -20.573438 -0.471441 0.557649 -49.880327 -9.579454 -4.929271 -23.912558 -35.595382 10.480859 0.000000 0.000000 0.000000 10.070176 0.992456 -0.641362 60.625820 5.743909 -6.095176 16.574017 36.299066 6.810954 0.000000 0.000000 0.000000 
